<!DOCTYPE svg PUBLIC "-//W3C//DTD SVG 1.1//EN" "http://www.w3.org/Graphics/SVG/1.1/DTD/svg11.dtd">
<!-- Uploaded to: SVG Repo, www.svgrepo.com, Transformed by: SVG Repo Mixer Tools -->
<svg fill="#54C93A" width="800px" height="800px" viewBox="-2.4 -2.4 28.80 28.80" xmlns="http://www.w3.org/2000/svg" stroke="#54C93A" stroke-width="0.00024000000000000003">
<g id="SVGRepo_bgCarrier" stroke-width="0"/>
<g id="SVGRepo_tracerCarrier" stroke-linecap="round" stroke-linejoin="round" stroke="#000000" stroke-width="1.008">
<path d="M5.536 21.886a1.004 1.004 0 0 0 1.033-.064l13-9a1 1 0 0 0 0-1.644l-13-9A1 1 0 0 0 5 3v18a1 1 0 0 0 .536.886z"/>
</g>
<g id="SVGRepo_iconCarrier">
<path d="M5.536 21.886a1.004 1.004 0 0 0 1.033-.064l13-9a1 1 0 0 0 0-1.644l-13-9A1 1 0 0 0 5 3v18a1 1 0 0 0 .536.886z"/>
</g>
</svg>